<mxfile host="app.diagrams.net" modified="2021-06-09T05:59:46.774Z" agent="5.0 (Windows NT 10.0; Win64; x64) AppleWebKit/537.36 (KHTML, like Gecko) Chrome/91.0.4472.77 Safari/537.36" etag="GGHYMRbCDrcS54NkeSG6" version="14.7.5" type="github">
  <diagram id="C5RBs43oDa-KdzZeNtuy" name="Page-1">
    <mxGraphModel dx="1673" dy="896" grid="1" gridSize="10" guides="1" tooltips="1" connect="1" arrows="1" fold="1" page="1" pageScale="1" pageWidth="1169" pageHeight="1654" math="0" shadow="0">
      <root>
        <mxCell id="WIyWlLk6GJQsqaUBKTNV-0" />
        <mxCell id="WIyWlLk6GJQsqaUBKTNV-1" parent="WIyWlLk6GJQsqaUBKTNV-0" />
        <mxCell id="f0ySKjpdHWETVGxUKJwf-25" value="本地数据" style="rounded=0;whiteSpace=wrap;html=1;verticalAlign=top;" parent="WIyWlLk6GJQsqaUBKTNV-1" vertex="1">
          <mxGeometry x="60" y="500" width="190" height="210" as="geometry" />
        </mxCell>
        <mxCell id="f0ySKjpdHWETVGxUKJwf-19" value="数据获取" style="rounded=1;whiteSpace=wrap;html=1;verticalAlign=top;" parent="WIyWlLk6GJQsqaUBKTNV-1" vertex="1">
          <mxGeometry x="280" y="515" width="320" height="150" as="geometry" />
        </mxCell>
        <mxCell id="f0ySKjpdHWETVGxUKJwf-13" value="第三方平台接口" style="rounded=0;whiteSpace=wrap;html=1;verticalAlign=top;" parent="WIyWlLk6GJQsqaUBKTNV-1" vertex="1">
          <mxGeometry x="640" y="430" width="185" height="350" as="geometry" />
        </mxCell>
        <mxCell id="WIyWlLk6GJQsqaUBKTNV-2" value="" style="rounded=0;html=1;jettySize=auto;orthogonalLoop=1;fontSize=11;endArrow=block;endFill=0;endSize=8;strokeWidth=1;shadow=0;labelBackgroundColor=none;edgeStyle=orthogonalEdgeStyle;entryX=0.5;entryY=0;entryDx=0;entryDy=0;" parent="WIyWlLk6GJQsqaUBKTNV-1" source="WIyWlLk6GJQsqaUBKTNV-3" target="f0ySKjpdHWETVGxUKJwf-1" edge="1">
          <mxGeometry relative="1" as="geometry">
            <mxPoint x="439.99" y="190" as="targetPoint" />
          </mxGeometry>
        </mxCell>
        <mxCell id="WIyWlLk6GJQsqaUBKTNV-3" value="外部请求" style="rounded=1;whiteSpace=wrap;html=1;fontSize=12;glass=0;strokeWidth=1;shadow=0;" parent="WIyWlLk6GJQsqaUBKTNV-1" vertex="1">
          <mxGeometry x="379.99" y="40" width="120" height="40" as="geometry" />
        </mxCell>
        <mxCell id="f0ySKjpdHWETVGxUKJwf-1" value="请求验证" style="rounded=0;whiteSpace=wrap;html=1;verticalAlign=top;" parent="WIyWlLk6GJQsqaUBKTNV-1" vertex="1">
          <mxGeometry x="359.99" y="110" width="160" height="140" as="geometry" />
        </mxCell>
        <mxCell id="f0ySKjpdHWETVGxUKJwf-7" value="第三方数据请求" style="rounded=1;whiteSpace=wrap;html=1;" parent="WIyWlLk6GJQsqaUBKTNV-1" vertex="1">
          <mxGeometry x="460" y="575" width="120" height="60" as="geometry" />
        </mxCell>
        <mxCell id="f0ySKjpdHWETVGxUKJwf-8" value="淘宝" style="rounded=0;whiteSpace=wrap;html=1;" parent="WIyWlLk6GJQsqaUBKTNV-1" vertex="1">
          <mxGeometry x="665" y="545" width="120" height="60" as="geometry" />
        </mxCell>
        <mxCell id="f0ySKjpdHWETVGxUKJwf-9" value="京东" style="rounded=1;whiteSpace=wrap;html=1;" parent="WIyWlLk6GJQsqaUBKTNV-1" vertex="1">
          <mxGeometry x="665" y="465" width="120" height="60" as="geometry" />
        </mxCell>
        <mxCell id="f0ySKjpdHWETVGxUKJwf-10" value="拼多多&lt;span style=&quot;color: rgba(0 , 0 , 0 , 0) ; font-family: monospace ; font-size: 0px&quot;&gt;%3CmxGraphModel%3E%3Croot%3E%3CmxCell%20id%3D%220%22%2F%3E%3CmxCell%20id%3D%221%22%20parent%3D%220%22%2F%3E%3CmxCell%20id%3D%222%22%20value%3D%22%E6%B7%98%E5%AE%9D%22%20style%3D%22rounded%3D0%3BwhiteSpace%3Dwrap%3Bhtml%3D1%3B%22%20vertex%3D%221%22%20parent%3D%221%22%3E%3CmxGeometry%20x%3D%22350%22%20y%3D%22360%22%20width%3D%22120%22%20height%3D%2260%22%20as%3D%22geometry%22%2F%3E%3C%2FmxCell%3E%3C%2Froot%3E%3C%2FmxGraphModel%3E&lt;/span&gt;&lt;span style=&quot;color: rgba(0 , 0 , 0 , 0) ; font-family: monospace ; font-size: 0px&quot;&gt;%3CmxGraphModel%3E%3Croot%3E%3CmxCell%20id%3D%220%22%2F%3E%3CmxCell%20id%3D%221%22%20parent%3D%220%22%2F%3E%3CmxCell%20id%3D%222%22%20value%3D%22%E6%B7%98%E5%AE%9D%22%20style%3D%22rounded%3D0%3BwhiteSpace%3Dwrap%3Bhtml%3D1%3B%22%20vertex%3D%221%22%20parent%3D%221%22%3E%3CmxGeometry%20x%3D%22350%22%20y%3D%22360%22%20width%3D%22120%22%20height%3D%2260%22%20as%3D%22geometry%22%2F%3E%3C%2FmxCell%3E%3C%2Froot%3E%3C%2FmxGraphModel%3E&lt;/span&gt;" style="rounded=0;whiteSpace=wrap;html=1;" parent="WIyWlLk6GJQsqaUBKTNV-1" vertex="1">
          <mxGeometry x="665" y="625" width="120" height="60" as="geometry" />
        </mxCell>
        <mxCell id="f0ySKjpdHWETVGxUKJwf-11" value="其他平台" style="rounded=0;whiteSpace=wrap;html=1;" parent="WIyWlLk6GJQsqaUBKTNV-1" vertex="1">
          <mxGeometry x="665" y="705" width="120" height="60" as="geometry" />
        </mxCell>
        <mxCell id="f0ySKjpdHWETVGxUKJwf-18" value="推广品" style="rounded=1;whiteSpace=wrap;html=1;verticalAlign=middle;" parent="WIyWlLk6GJQsqaUBKTNV-1" vertex="1">
          <mxGeometry x="310" y="575" width="120" height="60" as="geometry" />
        </mxCell>
        <mxCell id="f0ySKjpdHWETVGxUKJwf-20" value="" style="endArrow=classic;html=1;entryX=0.5;entryY=0;entryDx=0;entryDy=0;exitX=0.5;exitY=1;exitDx=0;exitDy=0;" parent="WIyWlLk6GJQsqaUBKTNV-1" source="f0ySKjpdHWETVGxUKJwf-1" edge="1" target="jyZqkZIKJWn7skq5FlCa-0">
          <mxGeometry width="50" height="50" relative="1" as="geometry">
            <mxPoint x="420" y="280" as="sourcePoint" />
            <mxPoint x="442.5" y="440" as="targetPoint" />
          </mxGeometry>
        </mxCell>
        <mxCell id="f0ySKjpdHWETVGxUKJwf-21" value="" style="endArrow=classic;html=1;exitX=0;exitY=0.5;exitDx=0;exitDy=0;entryX=1;entryY=0.5;entryDx=0;entryDy=0;" parent="WIyWlLk6GJQsqaUBKTNV-1" source="f0ySKjpdHWETVGxUKJwf-13" target="f0ySKjpdHWETVGxUKJwf-7" edge="1">
          <mxGeometry width="50" height="50" relative="1" as="geometry">
            <mxPoint x="610" y="655" as="sourcePoint" />
            <mxPoint x="660" y="605" as="targetPoint" />
          </mxGeometry>
        </mxCell>
        <mxCell id="f0ySKjpdHWETVGxUKJwf-22" value="人工指定推广品" style="rounded=0;whiteSpace=wrap;html=1;verticalAlign=middle;" parent="WIyWlLk6GJQsqaUBKTNV-1" vertex="1">
          <mxGeometry x="95" y="540" width="120" height="60" as="geometry" />
        </mxCell>
        <mxCell id="f0ySKjpdHWETVGxUKJwf-24" value="指定条件推广品" style="rounded=0;whiteSpace=wrap;html=1;verticalAlign=middle;" parent="WIyWlLk6GJQsqaUBKTNV-1" vertex="1">
          <mxGeometry x="94" y="610" width="120" height="60" as="geometry" />
        </mxCell>
        <mxCell id="f0ySKjpdHWETVGxUKJwf-26" value="" style="endArrow=classic;html=1;entryX=0;entryY=0.5;entryDx=0;entryDy=0;exitX=1;exitY=0.5;exitDx=0;exitDy=0;" parent="WIyWlLk6GJQsqaUBKTNV-1" source="f0ySKjpdHWETVGxUKJwf-25" target="f0ySKjpdHWETVGxUKJwf-18" edge="1">
          <mxGeometry width="50" height="50" relative="1" as="geometry">
            <mxPoint x="240" y="615" as="sourcePoint" />
            <mxPoint x="290" y="565" as="targetPoint" />
          </mxGeometry>
        </mxCell>
        <mxCell id="f0ySKjpdHWETVGxUKJwf-27" value="数据混合" style="rounded=0;whiteSpace=wrap;html=1;verticalAlign=top;" parent="WIyWlLk6GJQsqaUBKTNV-1" vertex="1">
          <mxGeometry x="324.38" y="740" width="231.25" height="153" as="geometry" />
        </mxCell>
        <mxCell id="f0ySKjpdHWETVGxUKJwf-28" value="" style="endArrow=classic;html=1;exitX=0.5;exitY=1;exitDx=0;exitDy=0;entryX=0.5;entryY=0;entryDx=0;entryDy=0;" parent="WIyWlLk6GJQsqaUBKTNV-1" source="f0ySKjpdHWETVGxUKJwf-19" target="f0ySKjpdHWETVGxUKJwf-27" edge="1">
          <mxGeometry width="50" height="50" relative="1" as="geometry">
            <mxPoint x="439.5" y="670" as="sourcePoint" />
            <mxPoint x="440" y="705" as="targetPoint" />
          </mxGeometry>
        </mxCell>
        <mxCell id="f0ySKjpdHWETVGxUKJwf-31" value="token验证" style="rounded=0;whiteSpace=wrap;html=1;verticalAlign=middle;" parent="WIyWlLk6GJQsqaUBKTNV-1" vertex="1">
          <mxGeometry x="379.99" y="150" width="120" height="30" as="geometry" />
        </mxCell>
        <mxCell id="f0ySKjpdHWETVGxUKJwf-33" value="接口限流" style="rounded=0;whiteSpace=wrap;html=1;verticalAlign=middle;" parent="WIyWlLk6GJQsqaUBKTNV-1" vertex="1">
          <mxGeometry x="379.99" y="200" width="120" height="30" as="geometry" />
        </mxCell>
        <mxCell id="jyZqkZIKJWn7skq5FlCa-0" value="缓存命中" style="rhombus;whiteSpace=wrap;html=1;" vertex="1" parent="WIyWlLk6GJQsqaUBKTNV-1">
          <mxGeometry x="375" y="310" width="130" height="80" as="geometry" />
        </mxCell>
        <mxCell id="jyZqkZIKJWn7skq5FlCa-1" value="" style="endArrow=classic;html=1;exitX=0.5;exitY=1;exitDx=0;exitDy=0;entryX=0.5;entryY=0;entryDx=0;entryDy=0;" edge="1" parent="WIyWlLk6GJQsqaUBKTNV-1" source="jyZqkZIKJWn7skq5FlCa-0" target="f0ySKjpdHWETVGxUKJwf-19">
          <mxGeometry width="50" height="50" relative="1" as="geometry">
            <mxPoint x="512.5" y="700" as="sourcePoint" />
            <mxPoint x="562.5" y="650" as="targetPoint" />
          </mxGeometry>
        </mxCell>
        <mxCell id="jyZqkZIKJWn7skq5FlCa-2" value="否" style="text;html=1;strokeColor=none;fillColor=none;align=center;verticalAlign=middle;whiteSpace=wrap;rounded=0;" vertex="1" parent="WIyWlLk6GJQsqaUBKTNV-1">
          <mxGeometry x="442.5" y="440" width="40" height="20" as="geometry" />
        </mxCell>
        <mxCell id="jyZqkZIKJWn7skq5FlCa-3" value="" style="rounded=0;whiteSpace=wrap;html=1;verticalAlign=top;" vertex="1" parent="WIyWlLk6GJQsqaUBKTNV-1">
          <mxGeometry x="612.5" y="910" width="85" as="geometry" />
        </mxCell>
        <mxCell id="jyZqkZIKJWn7skq5FlCa-4" value="随机混合" style="rounded=0;whiteSpace=wrap;html=1;verticalAlign=middle;" vertex="1" parent="WIyWlLk6GJQsqaUBKTNV-1">
          <mxGeometry x="331.87" y="773" width="87.5" height="30" as="geometry" />
        </mxCell>
        <mxCell id="jyZqkZIKJWn7skq5FlCa-5" value="间隔混合" style="rounded=0;whiteSpace=wrap;html=1;verticalAlign=middle;" vertex="1" parent="WIyWlLk6GJQsqaUBKTNV-1">
          <mxGeometry x="441.87" y="773" width="87.5" height="30" as="geometry" />
        </mxCell>
        <mxCell id="jyZqkZIKJWn7skq5FlCa-7" value="按排序字段混合" style="rounded=0;whiteSpace=wrap;html=1;verticalAlign=middle;" vertex="1" parent="WIyWlLk6GJQsqaUBKTNV-1">
          <mxGeometry x="331.87" y="833" width="87.5" height="30" as="geometry" />
        </mxCell>
        <mxCell id="jyZqkZIKJWn7skq5FlCa-8" value="人工配置" style="rounded=0;whiteSpace=wrap;html=1;verticalAlign=middle;" vertex="1" parent="WIyWlLk6GJQsqaUBKTNV-1">
          <mxGeometry x="440.62" y="833" width="87.5" height="30" as="geometry" />
        </mxCell>
        <mxCell id="jyZqkZIKJWn7skq5FlCa-9" value="" style="endArrow=classic;html=1;exitX=0.5;exitY=1;exitDx=0;exitDy=0;entryX=0.5;entryY=0;entryDx=0;entryDy=0;" edge="1" parent="WIyWlLk6GJQsqaUBKTNV-1" source="f0ySKjpdHWETVGxUKJwf-27" target="jyZqkZIKJWn7skq5FlCa-10">
          <mxGeometry width="50" height="50" relative="1" as="geometry">
            <mxPoint x="512.5" y="1000" as="sourcePoint" />
            <mxPoint x="439.5" y="960" as="targetPoint" />
          </mxGeometry>
        </mxCell>
        <mxCell id="jyZqkZIKJWn7skq5FlCa-10" value="数据缓存" style="rounded=0;whiteSpace=wrap;html=1;verticalAlign=middle;" vertex="1" parent="WIyWlLk6GJQsqaUBKTNV-1">
          <mxGeometry x="380" y="960" width="120" height="60" as="geometry" />
        </mxCell>
        <mxCell id="jyZqkZIKJWn7skq5FlCa-11" value="结果返回" style="rounded=0;whiteSpace=wrap;html=1;verticalAlign=middle;" vertex="1" parent="WIyWlLk6GJQsqaUBKTNV-1">
          <mxGeometry x="380" y="1060" width="120" height="60" as="geometry" />
        </mxCell>
        <mxCell id="jyZqkZIKJWn7skq5FlCa-12" value="" style="endArrow=classic;html=1;exitX=0.5;exitY=1;exitDx=0;exitDy=0;entryX=0.5;entryY=0;entryDx=0;entryDy=0;" edge="1" parent="WIyWlLk6GJQsqaUBKTNV-1" source="jyZqkZIKJWn7skq5FlCa-10" target="jyZqkZIKJWn7skq5FlCa-11">
          <mxGeometry width="50" height="50" relative="1" as="geometry">
            <mxPoint x="520" y="900" as="sourcePoint" />
            <mxPoint x="570" y="850" as="targetPoint" />
          </mxGeometry>
        </mxCell>
        <mxCell id="jyZqkZIKJWn7skq5FlCa-13" value="" style="endArrow=classic;html=1;exitX=1;exitY=0.5;exitDx=0;exitDy=0;entryX=1;entryY=0.5;entryDx=0;entryDy=0;" edge="1" parent="WIyWlLk6GJQsqaUBKTNV-1" source="jyZqkZIKJWn7skq5FlCa-0" target="jyZqkZIKJWn7skq5FlCa-11">
          <mxGeometry width="50" height="50" relative="1" as="geometry">
            <mxPoint x="520" y="300" as="sourcePoint" />
            <mxPoint x="960" y="1073" as="targetPoint" />
            <Array as="points">
              <mxPoint x="960" y="350" />
              <mxPoint x="960" y="1090" />
            </Array>
          </mxGeometry>
        </mxCell>
        <mxCell id="jyZqkZIKJWn7skq5FlCa-14" value="是" style="text;html=1;strokeColor=none;fillColor=none;align=center;verticalAlign=middle;whiteSpace=wrap;rounded=0;" vertex="1" parent="WIyWlLk6GJQsqaUBKTNV-1">
          <mxGeometry x="529.37" y="330" width="40" height="20" as="geometry" />
        </mxCell>
      </root>
    </mxGraphModel>
  </diagram>
</mxfile>
